<?xml version="1.0" encoding="UTF-8" standalone="no"?>
<!-- Created with Inkscape (http://www.inkscape.org/) -->

<svg
   xmlns:dc="http://purl.org/dc/elements/1.1/"
   xmlns:cc="http://creativecommons.org/ns#"
   xmlns:rdf="http://www.w3.org/1999/02/22-rdf-syntax-ns#"
   xmlns:svg="http://www.w3.org/2000/svg"
   xmlns="http://www.w3.org/2000/svg"
   xmlns:sodipodi="http://sodipodi.sourceforge.net/DTD/sodipodi-0.dtd"
   xmlns:inkscape="http://www.inkscape.org/namespaces/inkscape"
   version="1.0"
   width="125"
   height="60.240002"
   id="svg82724"
   inkscape:version="0.48.4 r9939"
   sodipodi:docname="SFMuni_Worm.svg">
  <metadata
     id="metadata7">
    <rdf:RDF>
      <cc:Work
         rdf:about="">
        <dc:format>image/svg+xml</dc:format>
        <dc:type
           rdf:resource="http://purl.org/dc/dcmitype/StillImage" />
      </cc:Work>
    </rdf:RDF>
  </metadata>
  <sodipodi:namedview
     pagecolor="#ffffff"
     bordercolor="#666666"
     borderopacity="1"
     objecttolerance="10"
     gridtolerance="10"
     guidetolerance="10"
     inkscape:pageopacity="0"
     inkscape:pageshadow="2"
     inkscape:window-width="733"
     inkscape:window-height="480"
     id="namedview5"
     showgrid="false"
     inkscape:zoom="0.97333333"
     inkscape:cx="320.54795"
     inkscape:cy="85.239998"
     inkscape:window-x="0"
     inkscape:window-y="27"
     inkscape:window-maximized="0"
     inkscape:current-layer="svg82724" />
  <defs
     id="defs82726" />
  <path
     d="m 77.0881,46.252007 c 0,-9.00009 0,-18.03082 0,-27.053887 0,-2.885951 1.31272,-4.872916 2.61012,-6.170317 1.27697,-1.279523 3.06218,-1.843943 5.56248,-1.843943 2.50286,0 4.26764,0.56442 5.54971,1.843943 1.30251,1.297401 2.71995,3.284366 2.71995,6.170317 0,6.882867 0,13.778502 0,20.653707 0,1.50683 -0.24007,3.46059 1.6192,5.33774 1.86948,1.85671 3.36353,1.95121 4.49748,1.95121 1.12118,0 2.61268,-0.0945 4.46684,-1.95121 1.87459,-1.87715 1.71114,-3.83091 1.71114,-5.33774 0,-12.92549 0,-26.711651 0,-39.61926236 -1.6907,0 -3.4376,0 -5.11298,0 0,11.62808536 0,24.15771336 0,35.78579736 0,0.6155 -0.33968,1.11607 -1.065,1.11607 -0.73809,0 -0.87855,-0.50057 -0.87855,-1.11607 0,-6.065605 0,-16.296685 0,-22.089019 0,-3.672563 -0.58741,-7.4702734 -3.73386,-10.4456134 -3.15156,-2.97788996 -4.54346,-3.48356995693 -9.7867,-3.48356995693 -5.23302,0 -6.61215,0.50567999693 -9.77903,3.48356995693 -3.14901,2.97534 -3.54231,6.7730504 -3.54231,10.4456134 0,7.485596 0,25.536839 0,27.053884 0,2.88595 -1.32294,4.90101 -2.60247,6.20352 -1.29484,1.27952 -3.07494,1.84394 -5.57269,1.84394 -2.50541,0 -4.29062,-0.56442 -5.56248,-1.84394 -1.2923,-1.30251 -2.72761,-3.31757 -2.72761,-6.20352 0,-9.02818 0,-18.038478 0,-27.069207 0,-3.680225 -0.58741,-7.4549504 -3.75174,-10.4302904 -3.13878,-2.97788996 -4.3851,-3.48356995693 -9.636,-3.48356995693 -5.233029,0 -6.760284,0.50567999693 -9.909289,3.48356995693 -3.16433,2.97534 -3.45548,6.7500654 -3.45548,10.4302904 0,7.357898 0,14.766877 0,22.104342 0,0.6155 -0.25284,1.11607 -0.990928,1.11607 -0.730427,0 -1.003699,-0.50057 -1.003699,-1.11607 0,-7.337465 0,-14.746444 0,-22.104342 0,-3.672565 -0.554205,-7.4549504 -3.708319,-10.4302904 C 19.856877,0.50583964 18.480304,1.5964307e-4 13.221744,1.5964307e-4 7.988722,1.5964307e-4 6.609595,0.50583964 3.458034,3.4837296 0.293703,6.4590696 0,10.241455 0,13.91402 l 0,46.236517 c 1.683046,0 3.3712,0 5.061908,0 0,-13.29325 0,-27.64895 0,-40.942201 0,-2.885952 1.32294,-4.883132 2.610125,-6.180533 1.279524,-1.279523 3.067282,-1.843943 5.567588,-1.843943 2.50286,0 4.280402,0.56442 5.572696,1.843943 1.274415,1.297401 2.582032,3.294581 2.582032,6.180533 0,6.859881 0,13.786161 0,20.643491 0,1.50683 -0.114928,3.46059 1.746895,5.33774 1.861821,1.85671 3.360984,1.95121 4.471947,1.95121 1.131395,0 2.62034,-0.0945 4.47961,-1.95121 1.872035,-1.87715 1.675385,-3.83091 1.675385,-5.33774 0,-1.54513 0,-15.308312 0,-20.643491 0,-2.885952 1.3306,-4.883132 2.610125,-6.180533 1.299959,-1.279523 3.192429,-1.843943 5.695289,-1.843943 2.49519,0 4.38,0.56442 5.65953,1.843943 1.29229,1.297401 2.64077,3.294581 2.64077,6.180533 0,9.012851 0,18.020596 0,27.023231 0,3.75174 0.31924,7.53667 3.46824,10.50435 3.14901,2.97279 4.54346,3.48357 9.77904,3.48357 5.256,0 6.64024,-0.51078 9.78669,-3.48357 3.14901,-2.96768 3.68023,-6.78581 3.68023,-10.48391 m 32.21028,10.48399 c 3.14646,-2.96768 3.70832,-6.78581 3.70832,-10.48392 -0.0434,-15.03504 -0.0434,-30.966512 -0.0434,-46.01943236 -1.64729,0 -3.35843,0 -4.9955,0 0,13.27282436 0,27.44718736 0,40.72767236 0,2.87574 -1.47363,4.924 -2.75571,6.22651 -1.29995,1.27952 -3.06472,1.84394 -5.56503,1.84394 -2.50541,0 -4.28806,-0.56442 -5.57269,-1.84394 -1.29996,-1.30251 -2.54117,-3.35077 -2.54117,-6.22651 0,-7.237865 0,-13.40563 0,-20.63583 0,-1.506825 0.20431,-3.424833 -1.66006,-5.289209 -1.85671,-1.861821 -3.338,-1.961425 -4.47195,-1.961425 -1.11607,0 -2.61524,0.0996 -4.47706,1.961425 -1.86693,1.864376 -1.61919,3.782384 -1.61919,5.289209 0,13.2907 0,26.52777 0,39.82613 1.85671,0 3.09537,0 4.94442,0 0,-11.65107 0,-24.359475 0,-36.015653 0,-0.607838 0.27327,-1.047115 1.01136,-1.047115 0.7432,0 0.99349,0.439277 0.99349,1.047115 0.0536,0.81726 0,17.463843 0,22.117113 0,3.69811 0.32945,7.51624 3.47591,10.48392 3.16943,2.97279 4.55622,3.48357 9.78414,3.48357 5.23558,0 6.62236,-0.51078 9.78414,-3.48357 M 48.11111,20.324368 c 0,-1.52981 0.38054,-3.424833 -1.4915,-5.289208 -1.85416,-1.861822 -3.43505,-1.961426 -4.54601,-1.961426 -1.12373,0 -2.54372,0.0996 -4.40554,1.961426 -1.872044,1.864375 -1.774994,3.759398 -1.774994,5.289208 0,6.864989 0,13.778499 0,20.646049 0,2.8834 -1.422545,4.91378 -2.70973,6.21629 -1.27186,1.28208 -3.05451,1.8465 -5.570141,1.8465 -2.497753,0 -4.275294,-0.56442 -5.56248,-1.8465 -1.282077,-1.30251 -2.635665,-3.33289 -2.635665,-6.21629 0,-7.23276 0,-13.413295 0,-20.646049 0,-1.506824 0.08939,-3.424833 -1.772433,-5.289208 -1.869484,-1.861822 -3.340553,-1.961426 -4.471948,-1.961426 -1.118626,0 -2.61268,0.0996 -4.474501,1.961426 -1.864377,1.864375 -1.726464,3.782384 -1.726464,5.289208 0,9.242704 0,38.306529 0,39.828679 1.726464,0 3.549976,0 5.278993,0 0,-11.6434 0,-24.344145 0,-35.985001 0,-0.628269 0.250286,-1.080316 0.990928,-1.080316 0.730427,0 1.008806,0.452047 1.008806,1.059885 0,7.365562 0,14.766877 0,22.104352 0,3.6981 0.309027,7.51879 3.470803,10.48391 3.161777,2.97534 4.548566,3.48357 9.779033,3.48357 5.250899,0 6.627474,-0.50823 9.779034,-3.48357 3.154119,-2.96512 3.672569,-6.78581 3.672569,-10.48391 0,-7.337475 0,-14.73879 0,-22.104352 0,-0.58996 0.38309,-1.059885 1.12373,-1.059885 0.73043,0 1.10586,0.469925 1.10586,1.059885 0,11.643407 0,24.362032 0,36.005432 1.63707,0 3.28692,0 4.93165,0 0,-12.9408 0,-26.910855 0,-39.828679 m 9.50576,19.530079 c 0,1.50682 -0.20687,3.46058 1.66006,5.33773 1.8465,1.85416 3.35332,1.95121 4.4745,1.95121 1.12118,0 2.61013,-0.0971 4.47705,-1.95121 1.86693,-1.87715 1.66773,-3.83091 1.66773,-5.33773 0,-8.75236 0,-38.0766874 0,-39.62182236 -1.64474,0 -3.4376,0 -5.09,0 0,11.63064036 0,24.15771136 0,35.78835236 0,0.615495 -0.32435,1.113515 -1.05478,1.113515 -0.73042,0 -1.1033,-0.49802 -1.1033,-1.113515 0,-11.630641 0,-24.157712 0,-35.78835236 -1.63963,0 -3.38652,0 -5.03126,0 0,12.91016336 0,26.69632736 0,39.62182236 m 57.60665,20.38555 9.77648,-0.0179 -0.0256,-59.98947736 -9.75094,0 0,60.00735736"
     id="Logo"
     style="fill:#c60651;fill-opacity:1;fill-rule:nonzero;stroke:none"
     inkscape:connector-curvature="0" />
</svg>
